Under Siege 1992 BluRay 1080p ac3 x264-LoNeWoLf

Encoded by Tequila-Bob a.k.a. bobnjeff a.k.a.LoNeWoLf

Source - NTSC BluRay Disc.

Movie has been tested and is DXVA Compliant
 
http://www.imdb.com/title/tt0105690/

More at IMDbPro » Under Siege (1992) 
103 min  -  Action | Crime | Thriller   -  9 October 1992 (USA) 
6.3/10 X  Users: 6.3/10 (26,357 votes) 151 reviews | Critics: 50 reviews 
A former SEAL, now cook, is the only person who can stop a gang of terrorists when they sieze control of a US Navy battleship. 


Director: Andrew Davis
Writer: J.F. Lawton
Stars:Steven Seagal, Gary Busey, Tommy Lee Jones

Storyline
The battleship Missouri is about to be decomissioned. Casey Ryback is Captain Adam's personal cook. And Ryback is always butting heads with the ship's XO Commander Krill but the Captain always intercedes. One day, after the President visits the Missouri, which is also the Captain's birthday, the Captain learns that a helicopter has been cleared to land on the ship by Commander Krill, which he was not informed of. When questioned Krill tells the Captain that it's a surprise for his birthday, the Captain then allows it. Later after another one of their scuffles, Krill has Ryback locked in the freezer. During the party, the rock band reveals themselves to be mercenaries, led by William Stranix, a CIA operative, who is in league with Krill to unload all of the ship's nuclear warheads. They lock up all of the crew and make preparations to remove the warheads. And Krill remembers Ryback, Stranix sends two of his men to take care of Ryback... Written by    

Genres:Action , Crime , Thriller

Release Date:9 October 1992 (USA)

Rated R for strong violence, and for language and brief nudity

Plot Keywords:Cook , Battleship , Party , Playmate , Warhead



Cast
Cast overview, first billed only: 
 Steven Seagal  ...  Casey Ryback  
 Tommy Lee Jones  ...  William Stranix  
 Gary Busey  ...  Cmdr. Krill  
 Erika Eleniak  ...  Jordan Tate  
 Colm Meaney  ...  Doumer  
 Patrick O'Neal  ...  Capt. Adams  
 Andy Romano  ...  Adm. Bates  
 Nick Mancuso  ...  Tom Breaker  
 Damian Chapa  ...  Tackman  
 Troy Evans  ...  Granger  
 David McKnight  ...  Flicker  
 Lee Hinton  ...  Cue Ball  
 Glenn Morshower  ...  Ens. Taylor  
 Leo Alexander  ...  Lt. Smart  
 John Rottger  ...  Cmdr. Green  


See all 20 full size 1920x1072 PNG files at the link below
 
http://s1015.photobucket.com/albums/af279/tequila-bob/Under%20Siege%201992/





Format : Matroska 
File size : 8.16 GiB 
Duration : 1h 42mn 
Overall bit rate : 11.4 Mbps 
Encoded date : UTC 2011-01-27 13:42:01 
Writing application : mkvmerge v4.4.0 ('Die Wiederkehr') built on Oct 31 2010 21:52:48 
Writing library : libebml v1.0.0 + libmatroska v1.0.0 

Video 
ID : 1 
Format : AVC 
Format/Info : Advanced Video Codec Format profile : High@L4.1 
Format settings, CABAC : Yes 
Format settings, ReFrames : 3 frames 
Muxing mode : Container profile=Unknown@4.1 
Codec ID : V_MPEG4/ISO/AVC 
Duration : 1h 42mn 
Bit rate : 10.7 Mbps 
Width : 1 920 pixels 
Height : 1 072 pixels 
Display aspect ratio : 16:9 
Frame rate : 23.976 fps 
Color space : YUV 
Chroma subsampling : 4:2:0 
Bit depth : 8 bits 
Scan type : Progressive 
Bits/(Pixel*Frame) : 0.217 
Stream size : 7.54 GiB (92%) 
Writing library : x264 core 112 r1867 22bfd31 
Encoding settings : cabac=1 / ref=4 / deblock=1:-3:-3 / analyse=0x3:0x113 / me=umh / subme=9 / psy=1 / psy_rd=1.00:0.08 / mixed_ref=1 / me_range=32 / chroma_me=1 / trellis=2 / 8x8dct=1 / cqm=0 / deadzone=21,11 / fast_pskip=0 / chroma_qp_offset=-3 / threads=6 / sliced_threads=0 / nr=0 / decimate=1 / interlaced=0 / constrained_intra=0 / bframes=6 / b_pyramid=1 / b_adapt=2 / b_bias=0 / direct=1 / weightb=1 / open_gop=2 / weightp=2 / keyint=250 / keyint_min=23 / scenecut=40 / intra_refresh=0 / rc_lookahead=100 / rc=2pass / mbtree=1 / bitrate=10699 / ratetol=1.0 / qcomp=0.60 / qpmin=10 / qpmax=51 / qpstep=4 / cplxblur=20.0 / qblur=0.5 / vbv_maxrate=50000 / vbv_bufsize=50000 / nal_hrd=none / ip_ratio=1.40 / aq=1:1.50 
Language : English 

Audio 
ID : 2 
Format : AC-3 
Format/Info : Audio Coding 3 
Mode extension : CM (complete main) 
Codec ID : A_AC3 
Duration : 1h 42mn 
Bit rate mode : Constant 
Bit rate : 640 Kbps 
Channel(s) : 6 channels 
Channel positions : Front: L C R, Side: L R, LFE 
Sampling rate : 48.0 KHz 
Bit depth : 16 bits 
Stream size : 469 MiB (6%) 
Title : 3/2+1 
Language : English 

Text #1 
ID : 3 
Format : PGS 
Codec ID : S_HDMV/PGS 
Codec ID/Info : The same subtitle format used on BDs/HD-DVDs 
Language : English 
        : French
        : Spanish 


Menu & 28 Chapters



See all 20 full size 1920x1072 PNG files at the link below
 
http://s1015.photobucket.com/albums/af279/tequila-bob/Under%20Siege%201992/

